<?xml version="1.0" encoding="UTF-8"?>
<svg width="100" height="100" viewBox="0 0 100 100" xmlns="http://www.w3.org/2000/svg">
  <!-- Body -->
  <path d="M70,50c0,16-8.95,29-20,29s-20-13-20-29s8.95-29,20-29S70,34,70,50z" fill="#8B5A2B" />
  <!-- Shell -->
  <path d="M50,25c5.52,0,10,16.43,10,36.7c0,20.27-4.48,36.7-10,36.7s-10-16.43-10-36.7C40,41.43,44.48,25,50,25z" fill="#A67C52" transform="rotate(-45 50 50)" />
  <!-- Antennae -->
  <path d="M45,60 Q50,65 55,60" fill="none" stroke="#000" strokeWidth="2" strokeLinecap="round" />
  <!-- Eyes -->
  <circle cx="43" cy="32" r="2" fill="#000" />
  <circle cx="57" cy="32" r="2" fill="#000" />
</svg>
