<?xml version="1.0" encoding="UTF-8" standalone="no"?>
<svg width="200" height="200" viewBox="0 0 200 200" xmlns="http://www.w3.org/2000/svg">
  <!-- Background circle -->
  <circle cx="100" cy="100" r="95" fill="#1a1a2e" stroke="#4d5bf9" stroke-width="4"/>
  
  <!-- Gear element representing system optimization -->
  <path d="M100,40 L108,55 L124,50 L120,67 L135,75 L125,88 L135,100 L125,112 L135,125 L120,133 L124,150 L108,145 L100,160 L92,145 L76,150 L80,133 L65,125 L75,112 L65,100 L75,88 L65,75 L80,67 L76,50 L92,55 Z" 
        fill="#4d5bf9" stroke="#8d99ff" stroke-width="2"/>
  
  <!-- Central circuit board pattern -->
  <circle cx="100" cy="100" r="25" fill="#1a1a2e" stroke="#ff2e63" stroke-width="3"/>
  <path d="M100,75 L100,60 M100,125 L100,140 M75,100 L60,100 M125,100 L140,100 M85,85 L75,75 M115,85 L125,75 M85,115 L75,125 M115,115 L125,125" 
        stroke="#ff2e63" stroke-width="3" stroke-linecap="round"/>
  
  <!-- Monocle element for Sir Hawkington -->
  <circle cx="130" cy="80" r="15" fill="none" stroke="#eaeaea" stroke-width="3"/>
  <line x1="120" y1="70" x2="115" y2="65" stroke="#eaeaea" stroke-width="3"/>
  
  <!-- Binary rebellion code -->
  <text x="88" y="103" font-family="monospace" font-size="10" fill="#eaeaea">10110</text>
  <text x="88" y="113" font-family="monospace" font-size="10" fill="#eaeaea">01001</text>
</svg>
